<svg width="200" height="200" viewBox="0 0 200 200" xmlns="http://www.w3.org/2000/svg">
  <defs>
    <linearGradient id="sawGrad" x1="0%" y1="0%" x2="100%" y2="100%">
      <stop offset="0%" style="stop-color:#7c3aed;stop-opacity:1" />
      <stop offset="100%" style="stop-color:#6d28d9;stop-opacity:1" />
    </linearGradient>
  </defs>
  
  <!-- Корпус пилы -->
  <rect x="30" y="70" width="100" height="60" rx="8" fill="url(#sawGrad)" stroke="#5b21b6" stroke-width="2"/>
  
  <!-- Пильный диск -->
  <circle cx="140" cy="100" r="30" fill="#6b7280" stroke="#374151" stroke-width="2"/>
  
  <!-- Зубья диска -->
  <polygon points="140,70 145,75 140,80 135,75" fill="#374151"/>
  <polygon points="170,100 165,105 160,100 165,95" fill="#374151"/>
  <polygon points="140,130 135,125 140,120 145,125" fill="#374151"/>
  <polygon points="110,100 115,95 120,100 115,105" fill="#374151"/>
  
  <!-- Защитный кожух -->
  <path d="M 110 100 A 30 30 0 0 1 140 70 A 30 30 0 0 1 170 100" fill="none" stroke="#374151" stroke-width="3"/>
  
  <!-- Логотип DCK -->
  <text x="80" y="110" text-anchor="middle" fill="white" font-family="Arial, sans-serif" font-size="12" font-weight="bold">DCK</text>
  
  <!-- Артикул -->
  <text x="100" y="185" text-anchor="middle" fill="#374151" font-family="Arial, sans-serif" font-size="10">KMY04-185</text>
</svg>