<?xml version="1.0" encoding="UTF-8" standalone="no"?>
<svg
   xmlns="http://www.w3.org/2000/svg"
   width="512"
   height="512"
   viewBox="0 0 512 512"
   version="1.1">
  <rect
     width="512"
     height="512"
     x="0"
     y="0"
     fill="#ffffff"
     rx="80"
     ry="80" />
  <rect
     width="472"
     height="472"
     x="20"
     y="20"
     fill="#cc0000"
     rx="60"
     ry="60" />
  <text
     xml:space="preserve"
     style="font-style:normal;font-weight:bold;font-size:160px;font-family:sans-serif;text-align:center;text-anchor:middle;fill:#ffffff;"
     x="256"
     y="270">ЭПС</text>
  <path
     fill="#ffcc00"
     d="M 120,340 H 390 C 405,340 420,355 420,370 C 420,385 405,400 390,400 H 120 C 105,400 90,385 90,370 C 90,355 105,340 120,340 Z" />
  <path
     fill="#ffcc00"
     d="M 130,320 V 240 C 130,225 145,210 160,210 H 352 C 367,210 382,225 382,240 V 320 H 342 V 250 H 170 V 320 Z" />
</svg>